<svg xmlns="http://www.w3.org/2000/svg" width="950" height="605" fill="none"><path fill="#EFF1F3" d="M4 0h946v600H4z"/><path fill="#C2CED8" d="M546.475 187.295a44.242 44.242 0 0 1 44.24 44.233v122.246q.008.205 0 .41v24.283a44.244 44.244 0 0 1-44.24 44.238H399.538a44.238 44.238 0 0 1-44.233-44.238V231.528a44.24 44.24 0 0 1 12.954-31.279 44.23 44.23 0 0 1 31.279-12.954zm-104.08 104.76c-4.042.001-8.577 1.707-13.115 6.055l-58.975 58.975v21.382a29.24 29.24 0 0 0 29.233 29.238h146.937a29.24 29.24 0 0 0 20.675-8.565 29.23 29.23 0 0 0 8.565-20.673v-21.392l-34.47-34.473c-4.54-4.349-9.08-6.059-13.12-6.059-4.045 0-8.58 1.711-13.12 6.059l-6.895 6.89 19.18 19.185a7.496 7.496 0 0 1 0 10.605c-2.925 2.929-7.675 2.928-10.605 0l-61.17-61.172c-4.539-4.349-9.078-6.055-13.12-6.055m-42.857-89.76a29.23 29.23 0 0 0-20.669 8.564 29.23 29.23 0 0 0-8.564 20.669v104.346l48.525-48.526c6.807-6.549 14.938-10.292 23.565-10.293s16.762 3.743 23.569 10.293l31.538 31.538 6.953-6.948.105-.097c6.805-6.551 14.935-10.298 23.565-10.298 8.625 0 16.76 3.747 23.565 10.298l.105.097 23.92 23.921V231.528a29.22 29.22 0 0 0-8.565-20.669 29.24 29.24 0 0 0-20.675-8.564zm110.702 39.033c8.115 0 14.7 6.577 14.7 14.692s-6.585 14.693-14.7 14.693c-8.115-.001-14.69-6.578-14.691-14.693 0-8.114 6.576-14.691 14.691-14.692"/></svg>